<?xml version="1.0" standalone="no"?>
<!DOCTYPE svg PUBLIC "-//W3C//DTD SVG 20010904//EN"
 "http://www.w3.org/TR/2001/REC-SVG-20010904/DTD/svg10.dtd">
<svg version="1.0" xmlns="http://www.w3.org/2000/svg"
 width="250.000000pt" height="167.000000pt" viewBox="0 0 250.000000 167.000000"
 preserveAspectRatio="xMidYMid meet">

<g transform="translate(0.000000,167.000000) scale(0.100000,-0.100000)"
fill="#000000" stroke="none">
<path d="M0 835 l0 -835 1250 0 1250 0 0 835 0 835 -1250 0 -1250 0 0 -835z
m1366 340 c63 -18 126 -72 154 -131 25 -51 21 -59 -30 -68 -34 -6 -36 -4 -60
42 -75 142 -305 114 -367 -46 -22 -57 -24 -207 -4 -265 50 -146 239 -196 344
-90 21 20 42 54 49 75 6 21 14 38 17 38 25 0 81 -23 81 -34 0 -28 -55 -118
-91 -150 -119 -102 -345 -80 -433 41 -56 77 -71 133 -70 258 0 89 4 119 21
156 67 148 231 221 389 174z"/>
</g>
</svg>
