<?xml version="1.0" standalone="no"?>
<!DOCTYPE svg PUBLIC "-//W3C//DTD SVG 20010904//EN"
 "http://www.w3.org/TR/2001/REC-SVG-20010904/DTD/svg10.dtd">
<svg version="1.0" xmlns="http://www.w3.org/2000/svg"
 width="250.000000pt" height="167.000000pt" viewBox="0 0 250.000000 167.000000"
 preserveAspectRatio="xMidYMid meet">

<g transform="translate(0.000000,167.000000) scale(0.100000,-0.100000)"
fill="#000000" stroke="none">
<path d="M0 835 l0 -835 1250 0 1250 0 0 835 0 835 -1250 0 -1250 0 0 -835z
m1250 200 c30 -15 55 -40 70 -70 15 -30 20 -60 15 -90 -5 -30 -20 -55 -45 -75 
-25 -20 -50 -30 -80 -30 -30 0 -55 10 -75 30 -20 20 -30 45 -30 75 0 30 10 55 
30 75 20 20 45 30 75 30 30 0 55 -10 75 -30"/>
</g>
</svg>
